<svg xmlns="http://www.w3.org/2000/svg" xmlns:xlink="http://www.w3.org/1999/xlink" width="500" zoomAndPan="magnify" viewBox="0 0 375 374.999991" height="500" preserveAspectRatio="xMidYMid meet" version="1.0"><defs><g/><clipPath id="6464461514"><path d="M 162.085938 115 L 213.085938 115 L 213.085938 162 L 162.085938 162 Z M 162.085938 115 " clip-rule="nonzero"/></clipPath></defs><g clip-path="url(#6464461514)"><path fill="#000000" d="M 213.015625 153.207031 C 212.863281 152.125 212.523438 151.078125 212.023438 150.117188 C 212.03125 150.050781 212.046875 149.996094 212.054688 149.925781 C 212.085938 149.734375 212.113281 149.527344 212.136719 149.3125 C 212.144531 149.203125 212.171875 149.085938 212.148438 148.980469 C 212.117188 148.875 212.054688 148.777344 212.03125 148.667969 C 211.765625 147.800781 211.382812 146.796875 210.785156 145.785156 C 210.1875 144.78125 209.34375 143.757812 208.226562 143.03125 L 207.796875 142.773438 L 207.316406 142.53125 L 206.925781 142.363281 C 206.710938 142.28125 206.621094 142.261719 206.460938 142.203125 C 205.898438 142.003906 205.320312 141.851562 204.753906 141.742188 C 204.191406 141.628906 203.628906 141.554688 203.097656 141.53125 C 202.667969 141.5 202.261719 141.515625 201.871094 141.539062 L 201.925781 141.464844 C 202.070312 141.257812 202.183594 141.0625 202.3125 140.859375 L 202.6875 140.261719 L 202.898438 139.859375 C 202.953125 139.742188 203.015625 139.628906 203.070312 139.511719 C 203.925781 137.636719 204.398438 135.628906 204.375 133.535156 C 204.351562 132.492188 204.199219 131.40625 203.734375 130.355469 C 203.300781 129.304688 202.410156 128.300781 201.265625 127.804688 C 200.117188 127.320312 198.917969 127.335938 197.871094 127.515625 C 196.808594 127.699219 195.828125 128.042969 194.914062 128.46875 C 193.992188 128.878906 193.136719 129.371094 192.292969 129.882812 L 191.40625 130.464844 C 191.175781 128.507812 190.773438 126.5625 190.128906 124.667969 C 189.699219 123.425781 189.167969 122.210938 188.5 121.050781 C 187.828125 119.898438 187.03125 118.789062 186.011719 117.835938 C 184.996094 116.898438 183.753906 116.0625 182.214844 115.773438 C 181.453125 115.636719 180.632812 115.664062 179.859375 115.886719 C 179.082031 116.101562 178.402344 116.550781 177.835938 117.046875 C 176.699219 118.070312 176.035156 119.382812 175.574219 120.664062 C 175.117188 121.925781 174.878906 123.324219 174.804688 124.636719 C 174.667969 127.292969 175.015625 129.863281 175.441406 132.386719 C 175.667969 133.652344 176.03125 134.878906 176.394531 136.097656 C 176.769531 137.316406 177.160156 138.523438 177.585938 139.71875 C 177.957031 140.785156 178.355469 141.839844 178.769531 142.886719 C 177.375 140.664062 176.050781 138.402344 174.835938 136.082031 C 173.480469 133.46875 172.246094 130.78125 171.359375 128.015625 L 171.046875 126.980469 L 170.78125 125.933594 C 170.628906 125.238281 170.488281 124.539062 170.417969 123.847656 C 170.335938 123.148438 170.308594 122.460938 170.347656 121.789062 C 170.34375 121.449219 170.429688 121.136719 170.460938 120.804688 C 170.511719 120.511719 170.605469 120.234375 170.679688 119.953125 L 170.839844 119.699219 C 170.910156 119.59375 170.960938 119.46875 171.042969 119.398438 L 171.269531 119.152344 C 171.34375 119.070312 171.445312 119.050781 171.519531 118.980469 C 171.59375 118.910156 171.664062 118.84375 171.742188 118.789062 C 171.816406 118.726562 171.890625 118.640625 171.992188 118.605469 C 172.089844 118.570312 172.179688 118.488281 172.296875 118.46875 C 172.40625 118.445312 172.523438 118.402344 172.648438 118.386719 L 173.039062 118.351562 L 173.457031 118.375 C 173.746094 118.40625 174.039062 118.453125 174.335938 118.535156 C 174.628906 118.613281 174.921875 118.714844 175.222656 118.828125 C 175.519531 118.945312 175.816406 119.070312 176.101562 119.226562 C 175.703125 118.710938 175.25 118.214844 174.707031 117.804688 C 174.433594 117.59375 174.140625 117.40625 173.824219 117.230469 C 173.660156 117.152344 173.492188 117.074219 173.320312 117.003906 L 172.769531 116.839844 C 172.582031 116.792969 172.375 116.78125 172.171875 116.753906 C 171.96875 116.722656 171.753906 116.761719 171.535156 116.769531 C 171.316406 116.777344 171.109375 116.84375 170.894531 116.910156 C 170.675781 116.96875 170.460938 117.039062 170.289062 117.179688 C 170.117188 117.308594 169.933594 117.445312 169.792969 117.59375 L 169.382812 118.054688 C 169.230469 118.207031 169.152344 118.378906 169.042969 118.539062 L 168.742188 119.035156 L 168.703125 119.101562 L 168.683594 119.167969 C 168.574219 119.582031 168.433594 119.996094 168.363281 120.414062 C 168.3125 120.828125 168.214844 121.25 168.214844 121.65625 C 168.164062 122.480469 168.203125 123.292969 168.292969 124.085938 C 168.378906 124.878906 168.53125 125.652344 168.699219 126.417969 L 168.988281 127.550781 L 169.324219 128.664062 C 170.269531 131.605469 171.550781 134.378906 172.945312 137.074219 C 174.351562 139.765625 175.890625 142.367188 177.515625 144.914062 L 178.007812 145.667969 L 177.6875 145.195312 C 177.570312 145.148438 177.453125 145.109375 177.324219 145.082031 C 176.777344 144.972656 176.234375 145.054688 175.765625 145.28125 C 173.800781 142.039062 167.074219 137.925781 165.109375 138.054688 C 164.378906 138.101562 163.839844 138.347656 163.507812 138.777344 C 162.9375 139.519531 163.15625 140.617188 163.230469 140.976562 C 163.289062 141.285156 163.464844 141.546875 163.734375 141.726562 C 164.238281 142.0625 164.980469 142.0625 165.511719 141.949219 C 166.265625 141.792969 166.710938 141.5 166.589844 140.535156 C 166.550781 140.226562 166.386719 139.976562 166.117188 139.824219 C 165.703125 139.585938 165.089844 139.617188 164.730469 139.769531 L 164.9375 140.265625 C 165.148438 140.171875 165.578125 140.132812 165.851562 140.289062 C 165.976562 140.359375 166.042969 140.460938 166.058594 140.605469 C 166.132812 141.167969 166.027344 141.300781 165.402344 141.429688 C 164.996094 141.519531 164.398438 141.53125 164.03125 141.285156 C 163.878906 141.1875 163.785156 141.050781 163.753906 140.875 C 163.691406 140.578125 163.507812 139.65625 163.929688 139.109375 C 164.164062 138.804688 164.574219 138.628906 165.140625 138.589844 C 166.921875 138.476562 173.503906 142.589844 175.3125 145.570312 C 175.277344 145.601562 175.238281 145.628906 175.203125 145.660156 C 171.980469 144.34375 164.445312 142.992188 162.851562 144.503906 C 162.320312 145.003906 162.066406 145.535156 162.085938 146.082031 C 162.121094 146.917969 162.785156 147.546875 163.277344 147.953125 C 163.425781 148.070312 163.59375 148.152344 163.769531 148.183594 C 163.890625 148.210938 164.019531 148.21875 164.148438 148.203125 C 164.746094 148.132812 165.320312 147.660156 165.65625 147.238281 C 166.136719 146.636719 166.289062 146.125 165.578125 145.460938 C 165.351562 145.246094 165.066406 145.164062 164.761719 145.214844 C 164.285156 145.300781 163.839844 145.714844 163.660156 146.0625 L 164.132812 146.304688 C 164.238281 146.105469 164.546875 145.792969 164.851562 145.742188 C 164.992188 145.714844 165.105469 145.75 165.214844 145.851562 C 165.628906 146.238281 165.632812 146.410156 165.238281 146.910156 C 164.980469 147.230469 164.527344 147.625 164.089844 147.671875 C 163.90625 147.691406 163.75 147.644531 163.613281 147.535156 C 163.375 147.339844 162.648438 146.753906 162.621094 146.0625 C 162.605469 145.675781 162.804688 145.28125 163.21875 144.890625 C 164.472656 143.703125 171.476562 144.777344 174.816406 146.082031 C 174.628906 146.347656 174.484375 146.65625 174.414062 147 C 174.140625 148.332031 174.996094 149.632812 176.328125 149.910156 C 176.953125 150.039062 177.566406 149.910156 178.078125 149.609375 L 178.0625 149.625 C 178.0625 149.625 180.242188 152.578125 182.644531 155.832031 C 185.046875 159.089844 193.566406 161.902344 194.605469 160.96875 C 194.789062 160.800781 193.929688 159.289062 191.308594 157.304688 C 191.703125 157.4375 192.101562 157.570312 192.496094 157.707031 C 193.777344 158.117188 195.054688 158.53125 196.34375 158.917969 C 197.648438 159.269531 198.921875 159.675781 200.261719 159.980469 C 201.59375 160.269531 202.960938 160.648438 204.277344 160.804688 L 205.269531 160.957031 L 205.765625 161.023438 L 206.011719 161.058594 L 206.078125 161.066406 L 206.109375 161.070312 L 206.195312 161.078125 L 206.339844 161.082031 C 207.105469 161.117188 207.898438 161.011719 208.660156 160.785156 C 209.421875 160.546875 210.175781 160.175781 210.800781 159.644531 C 211.433594 159.117188 211.9375 158.457031 212.300781 157.75 C 213.027344 156.304688 213.203125 154.707031 213.015625 153.207031 Z M 202.980469 143.664062 C 203.410156 143.683594 203.871094 143.746094 204.339844 143.839844 C 204.808594 143.929688 205.292969 144.054688 205.773438 144.222656 L 206.101562 144.332031 L 206.484375 144.496094 L 206.753906 144.636719 L 207.050781 144.816406 C 207.75 145.273438 208.339844 145.933594 208.800781 146.652344 C 208.5 146.464844 208.195312 146.289062 207.871094 146.136719 C 207.25 145.835938 206.496094 145.558594 205.75 145.425781 C 205.003906 145.257812 204.261719 145.238281 203.527344 145.230469 C 202.070312 145.265625 200.667969 145.519531 199.3125 145.875 C 198.5625 146.074219 197.832031 146.308594 197.109375 146.566406 C 197.195312 146.492188 197.28125 146.414062 197.367188 146.339844 C 198.082031 145.691406 198.792969 145.03125 199.472656 144.328125 C 199.730469 144.078125 199.976562 143.804688 200.222656 143.53125 C 200.355469 143.558594 200.492188 143.589844 200.632812 143.625 C 200.46875 143.59375 200.25 143.542969 201.238281 143.773438 C 201.402344 143.714844 201.574219 143.691406 201.761719 143.679688 C 202.136719 143.652344 202.546875 143.636719 202.980469 143.664062 Z M 177.589844 131.980469 C 177.363281 130.777344 177.136719 129.566406 177.039062 128.355469 C 176.929688 127.148438 176.871094 125.941406 176.9375 124.757812 C 177.011719 123.566406 177.195312 122.464844 177.59375 121.359375 C 177.972656 120.292969 178.511719 119.304688 179.261719 118.640625 C 179.992188 117.960938 180.890625 117.710938 181.839844 117.878906 C 182.792969 118.046875 183.738281 118.640625 184.550781 119.394531 C 185.371094 120.160156 186.0625 121.109375 186.652344 122.121094 C 187.238281 123.140625 187.71875 124.230469 188.109375 125.363281 C 188.878906 127.632812 189.289062 130.035156 189.449219 132.460938 L 189.570312 134.378906 L 191.148438 133.253906 L 192.273438 132.453125 L 193.421875 131.699219 C 194.195312 131.230469 194.984375 130.773438 195.792969 130.417969 C 196.59375 130.039062 197.421875 129.761719 198.226562 129.621094 C 199.027344 129.484375 199.804688 129.511719 200.414062 129.769531 C 201.011719 130.039062 201.484375 130.523438 201.777344 131.222656 C 202.085938 131.90625 202.222656 132.734375 202.234375 133.582031 C 202.261719 135.273438 201.851562 137.046875 201.132812 138.609375 C 201.089844 138.710938 201.03125 138.800781 200.988281 138.898438 L 200.914062 139.042969 L 200.859375 139.152344 L 200.855469 139.164062 L 200.492188 139.730469 C 200.363281 139.929688 200.242188 140.144531 200.113281 140.324219 L 199.714844 140.824219 L 199.328125 141.328125 L 198.875 141.832031 C 198.570312 142.171875 198.277344 142.515625 197.941406 142.835938 C 197.304688 143.492188 196.625 144.125 195.9375 144.746094 C 195.238281 145.359375 194.542969 145.976562 193.8125 146.558594 C 192.371094 147.742188 190.875 148.878906 189.355469 149.976562 C 188.492188 150.597656 187.617188 151.203125 186.738281 151.800781 C 186.175781 152.160156 185.621094 152.53125 185.0625 152.910156 C 185.058594 152.90625 185.042969 152.894531 185.042969 152.894531 C 185.042969 152.894531 183.234375 151.53125 183.265625 151.5 C 183.265625 151.5 183.03125 151.335938 182.726562 151.128906 C 182.367188 149.789062 182.007812 148.359375 181.644531 147.5625 C 181.507812 147.269531 181.382812 146.972656 181.238281 146.6875 L 181.167969 146.464844 C 180.414062 144.074219 179.722656 141.667969 179.105469 139.253906 C 178.796875 138.046875 178.527344 136.832031 178.273438 135.617188 Z M 178.929688 148.757812 C 179.066406 148.523438 179.179688 148.269531 179.238281 147.992188 C 179.261719 147.871094 179.265625 147.746094 179.269531 147.628906 C 179.300781 147.675781 179.328125 147.726562 179.359375 147.769531 C 179.597656 148.066406 179.886719 148.324219 180.148438 148.601562 C 180.507812 148.96875 180.871094 149.550781 181.242188 150.191406 C 180.125 149.429688 178.953125 148.734375 178.953125 148.734375 Z M 210.394531 156.761719 C 209.90625 157.722656 209.085938 158.433594 208.042969 158.710938 C 207.523438 158.851562 206.972656 158.917969 206.398438 158.890625 L 204.46875 158.785156 C 203.109375 158.753906 201.863281 158.515625 200.558594 158.363281 C 199.265625 158.199219 197.949219 157.914062 196.640625 157.695312 C 195.335938 157.433594 194.03125 157.148438 192.726562 156.867188 L 189.65625 156.136719 C 189.121094 155.765625 187.957031 154.964844 186.929688 154.242188 C 187.25 154.027344 187.574219 153.816406 187.894531 153.601562 C 188.328125 153.320312 188.769531 153.046875 189.207031 152.777344 C 190.335938 152.101562 191.484375 151.453125 192.644531 150.851562 C 194.976562 149.648438 197.386719 148.597656 199.855469 147.9375 C 201.085938 147.613281 202.339844 147.390625 203.554688 147.367188 C 204.15625 147.378906 204.761719 147.394531 205.324219 147.519531 C 205.894531 147.621094 206.410156 147.8125 206.988281 148.085938 C 207.984375 148.566406 208.945312 149.34375 209.613281 150.28125 C 210.304688 151.214844 210.730469 152.335938 210.894531 153.480469 C 211.042969 154.621094 210.890625 155.800781 210.394531 156.761719 Z M 210.394531 156.761719 " fill-opacity="1" fill-rule="nonzero"/></g><path fill="#000000" d="M 193.925781 140.226562 C 191.828125 136.371094 188.019531 140.878906 188.019531 140.878906 C 188.019531 140.878906 187.308594 133.761719 183.511719 134.828125 C 179.714844 135.894531 185.410156 150.550781 185.410156 150.550781 C 185.410156 150.550781 196.03125 144.082031 193.925781 140.226562 Z M 193.925781 140.226562 " fill-opacity="1" fill-rule="nonzero"/><path fill="#000000" d="M 198.964844 150.847656 C 195.078125 149.777344 189.148438 154.226562 189.148438 154.226562 C 189.148438 154.226562 195.617188 156.898438 198.40625 156.484375 C 201.191406 156.066406 202.851562 151.914062 198.964844 150.847656 Z M 198.964844 150.847656 " fill-opacity="1" fill-rule="nonzero"/><g fill="#000000" fill-opacity="1"><g transform="translate(16.096875, 206.999986)"><g><path d="M 28.636719 -7.71875 L 34.71875 -7.71875 L 34.71875 -31.636719 C 34.71875 -31.796875 34.558594 -31.996094 34.277344 -31.996094 L 29 -31.996094 C 28.839844 -31.996094 28.636719 -31.878906 28.558594 -31.757812 L 17.640625 -8.320312 L 6.160156 -31.757812 C 6.121094 -31.878906 5.878906 -31.996094 5.757812 -31.996094 L 0.398438 -31.996094 C 0.121094 -31.996094 0 -31.796875 0 -31.636719 L 0 -0.359375 C 0 -0.199219 0.121094 0 0.398438 0 L 5.679688 0 C 5.917969 0 6.121094 -0.199219 6.121094 -0.359375 L 6.121094 -18.320312 L 14.800781 -1.519531 C 14.839844 -1.398438 15.078125 -1.28125 15.199219 -1.28125 L 20.117188 -1.28125 C 20.238281 -1.28125 20.4375 -1.398438 20.480469 -1.519531 L 28.636719 -17.878906 Z M 28.636719 -7.71875 "/></g></g></g><g fill="#000000" fill-opacity="1"><g transform="translate(52.573256, 206.999986)"><g><path d="M 25.117188 -0.480469 L 12.960938 -31.757812 C 12.839844 -32.078125 12.277344 -32.078125 12.160156 -31.757812 L 0.0390625 -0.480469 C -0.078125 -0.238281 0.078125 0 0.441406 0 L 5.917969 0 C 6.078125 0 6.28125 -0.078125 6.320312 -0.238281 L 12.558594 -18.078125 L 18.878906 -0.238281 C 18.917969 -0.078125 19.117188 0 19.238281 0 L 24.757812 0 C 25.039062 0 25.238281 -0.238281 25.117188 -0.480469 Z M 25.117188 -0.480469 "/></g></g></g><g fill="#000000" fill-opacity="1"><g transform="translate(78.970631, 206.999986)"><g><path d="M 24.398438 -26.117188 L 24.398438 -31.636719 C 24.398438 -31.796875 24.238281 -31.996094 23.957031 -31.996094 L 18.757812 -31.996094 C 10.800781 -31.996094 0 -29.679688 0 -16 C 0 -1.800781 10.917969 0 18.757812 0 L 23.957031 0 C 24.238281 0 24.398438 -0.199219 24.398438 -0.359375 L 24.398438 -19.957031 L 12.121094 -19.957031 L 12.121094 -13.839844 L 18.277344 -13.839844 L 18.277344 -5.839844 C 11.320312 -5.480469 6.160156 -8.398438 6.160156 -16 C 6.160156 -25.878906 14.398438 -26.277344 18.277344 -26.117188 Z M 24.398438 -26.117188 "/></g></g></g><g fill="#000000" fill-opacity="1"><g transform="translate(104.608084, 206.999986)"><g><path d="M 13.039062 -5.480469 L 9.839844 -5.480469 L 9.839844 -31.996094 L 3.71875 -31.996094 L 3.71875 -5.480469 L 0.441406 -5.480469 C 0.199219 -5.480469 0 -5.320312 0 -5.121094 L 0 -0.359375 C 0 -0.199219 0.199219 0 0.441406 0 L 13.039062 0 C 13.320312 0 13.480469 -0.199219 13.480469 -0.359375 L 13.480469 -5.121094 C 13.480469 -5.320312 13.320312 -5.480469 13.039062 -5.480469 Z M 13.039062 -5.480469 "/></g></g></g><g fill="#000000" fill-opacity="1"><g transform="translate(118.766679, 206.999986)"><g><path d="M 18.277344 -5.878906 C 14.398438 -5.71875 6.160156 -6.121094 6.160156 -16 C 6.160156 -23.597656 11.320312 -26.519531 18.277344 -26.160156 L 18.277344 -19.078125 L 24.398438 -19.078125 L 24.398438 -31.636719 C 24.398438 -31.796875 24.238281 -31.996094 23.957031 -31.996094 L 18.757812 -31.996094 C 10.917969 -31.996094 0 -30.199219 0 -16 C 0 -2.320312 10.800781 0 18.757812 0 L 23.957031 0 C 24.238281 0 24.398438 -0.199219 24.398438 -0.359375 L 24.398438 -5.878906 Z M 18.277344 -5.878906 "/></g></g></g><g fill="#000000" fill-opacity="1"><g transform="translate(154.403144, 206.999986)"><g><path d="M 25.519531 -0.601562 L 12.679688 -15.71875 L 25.398438 -31.398438 C 25.679688 -31.679688 25.476562 -31.996094 25.039062 -31.996094 L 18.519531 -31.996094 C 18.4375 -31.996094 18.199219 -31.917969 18.160156 -31.878906 L 6.121094 -17.078125 L 6.121094 -31.636719 C 6.121094 -31.796875 5.960938 -31.996094 5.71875 -31.996094 L 0.441406 -31.996094 C 0.199219 -31.996094 0 -31.796875 0 -31.636719 L 0 -1.960938 C 0 -1.960938 7.800781 -10.800781 8.597656 -11.640625 L 17.917969 -0.121094 C 17.957031 -0.078125 18.199219 0 18.277344 0 L 25.160156 0 C 25.558594 0 25.757812 -0.28125 25.519531 -0.601562 Z M 25.519531 -0.601562 "/></g></g></g><g fill="#000000" fill-opacity="1"><g transform="translate(181.32047, 206.999986)"><g><path d="M 15.199219 -5.960938 L 6.121094 -5.960938 L 6.121094 -13.160156 L 18.679688 -13.160156 C 18.917969 -13.160156 19.117188 -13.359375 19.117188 -13.519531 L 19.117188 -18.597656 C 19.117188 -18.796875 18.917969 -18.957031 18.679688 -18.957031 L 6.121094 -18.957031 L 6.121094 -26.199219 L 15.199219 -26.199219 L 15.199219 -31.996094 L 0.441406 -31.996094 C 0.199219 -31.996094 0 -31.796875 0 -31.636719 L 0 -0.359375 C 0 -0.199219 0.199219 0 0.441406 0 L 15.199219 0 Z M 15.199219 -5.960938 "/></g></g></g><g fill="#000000" fill-opacity="1"><g transform="translate(201.398476, 206.999986)"><g><path d="M 18.160156 -25.878906 L 14.800781 -21.199219 L 7.199219 -31.878906 C 7.121094 -31.957031 6.917969 -31.996094 6.800781 -31.996094 L 0.480469 -31.996094 C 0.0390625 -31.996094 -0.121094 -31.679688 0.078125 -31.398438 C 3.960938 -25.957031 7.917969 -20.519531 11.757812 -15.039062 L 11.757812 -0.359375 C 11.757812 -0.199219 11.917969 0 12.199219 0 L 17.4375 0 C 17.679688 0 17.878906 -0.199219 17.878906 -0.359375 L 17.878906 -15.039062 L 25.597656 -25.878906 Z M 18.160156 -25.878906 "/></g></g></g><g fill="#000000" fill-opacity="1"><g transform="translate(228.275816, 206.999986)"><g><path d="M 15.597656 -22.480469 C 15.597656 -18.957031 10.878906 -18.957031 10.878906 -18.957031 L 6.078125 -18.957031 L 6.078125 -26.277344 L 10.878906 -26.277344 C 10.878906 -26.277344 15.597656 -26.316406 15.597656 -22.480469 Z M 21.71875 -22.839844 C 21.71875 -32.238281 10.878906 -31.996094 10.878906 -31.996094 L 0.441406 -31.996094 C 0.199219 -31.996094 0 -31.796875 0 -31.636719 L 0 -13 L 10.878906 -13 C 10.878906 -13 16.039062 -13.238281 16.039062 -9.480469 C 16.039062 -6.398438 12.878906 -5.839844 10.878906 -5.839844 L 6.121094 -5.839844 L 6.121094 0 L 10.878906 0 C 13.039062 0 22.160156 -0.398438 22.160156 -9.320312 C 22.160156 -9.320312 22.359375 -14.277344 17.277344 -16 C 19.71875 -17 21.71875 -19.117188 21.71875 -22.839844 Z M 21.71875 -22.839844 "/></g></g></g><g fill="#000000" fill-opacity="1"><g transform="translate(251.553509, 206.999986)"><g><path d="M 18.398438 -15.917969 C 18.398438 -17.597656 17.078125 -18.957031 15.398438 -18.957031 C 13.71875 -18.957031 12.398438 -17.597656 12.398438 -15.917969 C 12.398438 -14.277344 13.71875 -12.917969 15.398438 -12.917969 C 17.078125 -12.917969 18.398438 -14.277344 18.398438 -15.917969 Z M 30.796875 -16.039062 C 30.796875 -24 25.636719 -31.996094 15.4375 -31.996094 C 5.078125 -31.996094 0 -24 0 -16.039062 C 0 -8.039062 5.078125 0 15.4375 0 C 25.636719 0 30.796875 -8.039062 30.796875 -16.039062 Z M 24.796875 -15.917969 C 24.796875 -10.757812 21.636719 -5.601562 15.4375 -5.601562 C 9.160156 -5.601562 6.039062 -10.757812 6.039062 -15.917969 C 6.039062 -21.160156 9.160156 -26.359375 15.4375 -26.359375 C 21.636719 -26.359375 24.796875 -21.160156 24.796875 -15.917969 Z M 24.796875 -15.917969 "/></g></g></g><g fill="#000000" fill-opacity="1"><g transform="translate(283.870295, 206.999986)"><g><path d="M 25.117188 -0.480469 L 12.960938 -31.757812 C 12.839844 -32.078125 12.277344 -32.078125 12.160156 -31.757812 L 0.0390625 -0.480469 C -0.078125 -0.238281 0.078125 0 0.441406 0 L 5.917969 0 C 6.078125 0 6.28125 -0.078125 6.320312 -0.238281 L 12.558594 -18.078125 L 18.878906 -0.238281 C 18.917969 -0.078125 19.117188 0 19.238281 0 L 24.757812 0 C 25.039062 0 25.238281 -0.238281 25.117188 -0.480469 Z M 25.117188 -0.480469 "/></g></g></g><g fill="#000000" fill-opacity="1"><g transform="translate(310.26767, 206.999986)"><g><path d="M 21.839844 -0.519531 C 19.839844 -4.960938 17.679688 -9.359375 15.679688 -13.878906 C 18.878906 -15.039062 21.558594 -17.597656 21.558594 -22.480469 C 21.558594 -31.917969 12.558594 -31.996094 10.757812 -31.996094 L 0.398438 -31.996094 C 0.199219 -31.996094 0 -31.796875 0 -31.636719 L 0 -26.199219 L 10.757812 -26.199219 C 11.71875 -26.199219 15.480469 -26 15.480469 -22.480469 C 15.480469 -18.957031 12.078125 -18.796875 10.757812 -18.796875 L 0 -18.796875 L 0 -0.359375 C 0 -0.199219 0.199219 0 0.398438 0 L 5.640625 0 C 5.878906 0 6.078125 -0.199219 6.078125 -0.359375 L 6.078125 -12.917969 L 9.519531 -12.917969 L 15.359375 -0.238281 C 15.398438 -0.121094 15.640625 0 15.757812 0 L 21.480469 0 C 21.796875 0 21.957031 -0.238281 21.839844 -0.519531 Z M 21.839844 -0.519531 "/></g></g></g><g fill="#000000" fill-opacity="1"><g transform="translate(333.265372, 206.999986)"><g><path d="M 5.679688 -31.996094 L 0.441406 -31.996094 C 0.199219 -31.996094 0 -31.796875 0 -31.636719 L 0 -19.078125 L 6.121094 -19.078125 L 6.121094 -26.160156 C 13.078125 -26.519531 18.238281 -23.597656 18.238281 -16 C 18.238281 -6.121094 10 -5.71875 6.121094 -5.878906 L 6.121094 -12.917969 L 0 -12.917969 L 0 -0.359375 C 0 -0.199219 0.199219 0 0.441406 0 L 5.679688 0 C 13.640625 0 24.398438 -2.320312 24.398438 -16 C 24.398438 -30.199219 13.480469 -31.996094 5.679688 -31.996094 Z M 5.679688 -31.996094 "/></g></g></g></svg>