<svg xmlns="http://www.w3.org/2000/svg" xmlns:xlink="http://www.w3.org/1999/xlink" width="500" zoomAndPan="magnify" viewBox="0 0 375 374.999991" height="500" preserveAspectRatio="xMidYMid meet" version="1.0"><defs><g/></defs><g fill="#000000" fill-opacity="1"><g transform="translate(16.096875, 206.999986)"><g><path d="M 28.636719 -7.71875 L 34.71875 -7.71875 L 34.71875 -31.636719 C 34.71875 -31.796875 34.558594 -31.996094 34.277344 -31.996094 L 29 -31.996094 C 28.839844 -31.996094 28.636719 -31.878906 28.558594 -31.757812 L 17.640625 -8.320312 L 6.160156 -31.757812 C 6.121094 -31.878906 5.878906 -31.996094 5.757812 -31.996094 L 0.398438 -31.996094 C 0.121094 -31.996094 0 -31.796875 0 -31.636719 L 0 -0.359375 C 0 -0.199219 0.121094 0 0.398438 0 L 5.679688 0 C 5.917969 0 6.121094 -0.199219 6.121094 -0.359375 L 6.121094 -18.320312 L 14.800781 -1.519531 C 14.839844 -1.398438 15.078125 -1.28125 15.199219 -1.28125 L 20.117188 -1.28125 C 20.238281 -1.28125 20.4375 -1.398438 20.480469 -1.519531 L 28.636719 -17.878906 Z M 28.636719 -7.71875 "/></g></g></g><g fill="#000000" fill-opacity="1"><g transform="translate(52.573256, 206.999986)"><g><path d="M 25.117188 -0.480469 L 12.960938 -31.757812 C 12.839844 -32.078125 12.277344 -32.078125 12.160156 -31.757812 L 0.0390625 -0.480469 C -0.078125 -0.238281 0.078125 0 0.441406 0 L 5.917969 0 C 6.078125 0 6.28125 -0.078125 6.320312 -0.238281 L 12.558594 -18.078125 L 18.878906 -0.238281 C 18.917969 -0.078125 19.117188 0 19.238281 0 L 24.757812 0 C 25.039062 0 25.238281 -0.238281 25.117188 -0.480469 Z M 25.117188 -0.480469 "/></g></g></g><g fill="#000000" fill-opacity="1"><g transform="translate(78.970631, 206.999986)"><g><path d="M 24.398438 -26.117188 L 24.398438 -31.636719 C 24.398438 -31.796875 24.238281 -31.996094 23.957031 -31.996094 L 18.757812 -31.996094 C 10.800781 -31.996094 0 -29.679688 0 -16 C 0 -1.800781 10.917969 0 18.757812 0 L 23.957031 0 C 24.238281 0 24.398438 -0.199219 24.398438 -0.359375 L 24.398438 -19.957031 L 12.121094 -19.957031 L 12.121094 -13.839844 L 18.277344 -13.839844 L 18.277344 -5.839844 C 11.320312 -5.480469 6.160156 -8.398438 6.160156 -16 C 6.160156 -25.878906 14.398438 -26.277344 18.277344 -26.117188 Z M 24.398438 -26.117188 "/></g></g></g><g fill="#000000" fill-opacity="1"><g transform="translate(104.608084, 206.999986)"><g><path d="M 13.039062 -5.480469 L 9.839844 -5.480469 L 9.839844 -31.996094 L 3.71875 -31.996094 L 3.71875 -5.480469 L 0.441406 -5.480469 C 0.199219 -5.480469 0 -5.320312 0 -5.121094 L 0 -0.359375 C 0 -0.199219 0.199219 0 0.441406 0 L 13.039062 0 C 13.320312 0 13.480469 -0.199219 13.480469 -0.359375 L 13.480469 -5.121094 C 13.480469 -5.320312 13.320312 -5.480469 13.039062 -5.480469 Z M 13.039062 -5.480469 "/></g></g></g><g fill="#000000" fill-opacity="1"><g transform="translate(118.766679, 206.999986)"><g><path d="M 18.277344 -5.878906 C 14.398438 -5.71875 6.160156 -6.121094 6.160156 -16 C 6.160156 -23.597656 11.320312 -26.519531 18.277344 -26.160156 L 18.277344 -19.078125 L 24.398438 -19.078125 L 24.398438 -31.636719 C 24.398438 -31.796875 24.238281 -31.996094 23.957031 -31.996094 L 18.757812 -31.996094 C 10.917969 -31.996094 0 -30.199219 0 -16 C 0 -2.320312 10.800781 0 18.757812 0 L 23.957031 0 C 24.238281 0 24.398438 -0.199219 24.398438 -0.359375 L 24.398438 -5.878906 Z M 18.277344 -5.878906 "/></g></g></g><g fill="#000000" fill-opacity="1"><g transform="translate(154.403144, 206.999986)"><g><path d="M 25.519531 -0.601562 L 12.679688 -15.71875 L 25.398438 -31.398438 C 25.679688 -31.679688 25.476562 -31.996094 25.039062 -31.996094 L 18.519531 -31.996094 C 18.4375 -31.996094 18.199219 -31.917969 18.160156 -31.878906 L 6.121094 -17.078125 L 6.121094 -31.636719 C 6.121094 -31.796875 5.960938 -31.996094 5.71875 -31.996094 L 0.441406 -31.996094 C 0.199219 -31.996094 0 -31.796875 0 -31.636719 L 0 -1.960938 C 0 -1.960938 7.800781 -10.800781 8.597656 -11.640625 L 17.917969 -0.121094 C 17.957031 -0.078125 18.199219 0 18.277344 0 L 25.160156 0 C 25.558594 0 25.757812 -0.28125 25.519531 -0.601562 Z M 25.519531 -0.601562 "/></g></g></g><g fill="#000000" fill-opacity="1"><g transform="translate(181.32047, 206.999986)"><g><path d="M 15.199219 -5.960938 L 6.121094 -5.960938 L 6.121094 -13.160156 L 18.679688 -13.160156 C 18.917969 -13.160156 19.117188 -13.359375 19.117188 -13.519531 L 19.117188 -18.597656 C 19.117188 -18.796875 18.917969 -18.957031 18.679688 -18.957031 L 6.121094 -18.957031 L 6.121094 -26.199219 L 15.199219 -26.199219 L 15.199219 -31.996094 L 0.441406 -31.996094 C 0.199219 -31.996094 0 -31.796875 0 -31.636719 L 0 -0.359375 C 0 -0.199219 0.199219 0 0.441406 0 L 15.199219 0 Z M 15.199219 -5.960938 "/></g></g></g><g fill="#000000" fill-opacity="1"><g transform="translate(201.398476, 206.999986)"><g><path d="M 18.160156 -25.878906 L 14.800781 -21.199219 L 7.199219 -31.878906 C 7.121094 -31.957031 6.917969 -31.996094 6.800781 -31.996094 L 0.480469 -31.996094 C 0.0390625 -31.996094 -0.121094 -31.679688 0.078125 -31.398438 C 3.960938 -25.957031 7.917969 -20.519531 11.757812 -15.039062 L 11.757812 -0.359375 C 11.757812 -0.199219 11.917969 0 12.199219 0 L 17.4375 0 C 17.679688 0 17.878906 -0.199219 17.878906 -0.359375 L 17.878906 -15.039062 L 25.597656 -25.878906 Z M 18.160156 -25.878906 "/></g></g></g><g fill="#000000" fill-opacity="1"><g transform="translate(228.275816, 206.999986)"><g><path d="M 15.597656 -22.480469 C 15.597656 -18.957031 10.878906 -18.957031 10.878906 -18.957031 L 6.078125 -18.957031 L 6.078125 -26.277344 L 10.878906 -26.277344 C 10.878906 -26.277344 15.597656 -26.316406 15.597656 -22.480469 Z M 21.71875 -22.839844 C 21.71875 -32.238281 10.878906 -31.996094 10.878906 -31.996094 L 0.441406 -31.996094 C 0.199219 -31.996094 0 -31.796875 0 -31.636719 L 0 -13 L 10.878906 -13 C 10.878906 -13 16.039062 -13.238281 16.039062 -9.480469 C 16.039062 -6.398438 12.878906 -5.839844 10.878906 -5.839844 L 6.121094 -5.839844 L 6.121094 0 L 10.878906 0 C 13.039062 0 22.160156 -0.398438 22.160156 -9.320312 C 22.160156 -9.320312 22.359375 -14.277344 17.277344 -16 C 19.71875 -17 21.71875 -19.117188 21.71875 -22.839844 Z M 21.71875 -22.839844 "/></g></g></g><g fill="#000000" fill-opacity="1"><g transform="translate(251.553509, 206.999986)"><g><path d="M 18.398438 -15.917969 C 18.398438 -17.597656 17.078125 -18.957031 15.398438 -18.957031 C 13.71875 -18.957031 12.398438 -17.597656 12.398438 -15.917969 C 12.398438 -14.277344 13.71875 -12.917969 15.398438 -12.917969 C 17.078125 -12.917969 18.398438 -14.277344 18.398438 -15.917969 Z M 30.796875 -16.039062 C 30.796875 -24 25.636719 -31.996094 15.4375 -31.996094 C 5.078125 -31.996094 0 -24 0 -16.039062 C 0 -8.039062 5.078125 0 15.4375 0 C 25.636719 0 30.796875 -8.039062 30.796875 -16.039062 Z M 24.796875 -15.917969 C 24.796875 -10.757812 21.636719 -5.601562 15.4375 -5.601562 C 9.160156 -5.601562 6.039062 -10.757812 6.039062 -15.917969 C 6.039062 -21.160156 9.160156 -26.359375 15.4375 -26.359375 C 21.636719 -26.359375 24.796875 -21.160156 24.796875 -15.917969 Z M 24.796875 -15.917969 "/></g></g></g><g fill="#000000" fill-opacity="1"><g transform="translate(283.870295, 206.999986)"><g><path d="M 25.117188 -0.480469 L 12.960938 -31.757812 C 12.839844 -32.078125 12.277344 -32.078125 12.160156 -31.757812 L 0.0390625 -0.480469 C -0.078125 -0.238281 0.078125 0 0.441406 0 L 5.917969 0 C 6.078125 0 6.28125 -0.078125 6.320312 -0.238281 L 12.558594 -18.078125 L 18.878906 -0.238281 C 18.917969 -0.078125 19.117188 0 19.238281 0 L 24.757812 0 C 25.039062 0 25.238281 -0.238281 25.117188 -0.480469 Z M 25.117188 -0.480469 "/></g></g></g><g fill="#000000" fill-opacity="1"><g transform="translate(310.26767, 206.999986)"><g><path d="M 21.839844 -0.519531 C 19.839844 -4.960938 17.679688 -9.359375 15.679688 -13.878906 C 18.878906 -15.039062 21.558594 -17.597656 21.558594 -22.480469 C 21.558594 -31.917969 12.558594 -31.996094 10.757812 -31.996094 L 0.398438 -31.996094 C 0.199219 -31.996094 0 -31.796875 0 -31.636719 L 0 -26.199219 L 10.757812 -26.199219 C 11.71875 -26.199219 15.480469 -26 15.480469 -22.480469 C 15.480469 -18.957031 12.078125 -18.796875 10.757812 -18.796875 L 0 -18.796875 L 0 -0.359375 C 0 -0.199219 0.199219 0 0.398438 0 L 5.640625 0 C 5.878906 0 6.078125 -0.199219 6.078125 -0.359375 L 6.078125 -12.917969 L 9.519531 -12.917969 L 15.359375 -0.238281 C 15.398438 -0.121094 15.640625 0 15.757812 0 L 21.480469 0 C 21.796875 0 21.957031 -0.238281 21.839844 -0.519531 Z M 21.839844 -0.519531 "/></g></g></g><g fill="#000000" fill-opacity="1"><g transform="translate(333.265372, 206.999986)"><g><path d="M 5.679688 -31.996094 L 0.441406 -31.996094 C 0.199219 -31.996094 0 -31.796875 0 -31.636719 L 0 -19.078125 L 6.121094 -19.078125 L 6.121094 -26.160156 C 13.078125 -26.519531 18.238281 -23.597656 18.238281 -16 C 18.238281 -6.121094 10 -5.71875 6.121094 -5.878906 L 6.121094 -12.917969 L 0 -12.917969 L 0 -0.359375 C 0 -0.199219 0.199219 0 0.441406 0 L 5.679688 0 C 13.640625 0 24.398438 -2.320312 24.398438 -16 C 24.398438 -30.199219 13.480469 -31.996094 5.679688 -31.996094 Z M 5.679688 -31.996094 "/></g></g></g></svg>